<svg xmlns="http://www.w3.org/2000/svg" viewBox="0 0 100 100" width="100%" height="100%">
  <defs>
    <linearGradient id="appleRoad" x1="0%" y1="0%" x2="100%" y2="100%">
      <stop offset="0%" stop-color="#00A2FF" />
      <stop offset="100%" stop-color="#0066CC" />
    </linearGradient>
    <linearGradient id="appleGreen" x1="0%" y1="0%" x2="0%" y2="100%">
      <stop offset="0%" stop-color="#55E06F" />
      <stop offset="100%" stop-color="#34C759" />
    </linearGradient>
  </defs>
  
  <rect x="4" y="4" width="92" height="92" rx="22" fill="#F4F4F6" stroke="#E5E5EA" stroke-width="1.5" />
  
  <path d="M 4 25 L 96 25" stroke="#FFFFFF" stroke-width="6" />
  <path d="M 4 75 L 96 75" stroke="#FFFFFF" stroke-width="6" />
  <path d="M 30 4 L 30 96" stroke="#FFFFFF" stroke-width="6" />
  <path d="M 75 4 L 75 96" stroke="#FFFFFF" stroke-width="6" />
  
  <path d="M 4 45 L 96 45" stroke="#FFCC00" stroke-width="6" stroke-linecap="round" />
  
  <path d="M 30 96 L 30 45 L 96 45" stroke="url(#appleRoad)" stroke-width="4.5" stroke-linecap="round" stroke-linejoin="round" />
  
  <circle cx="68" cy="25" r="16" fill="url(#appleGreen)" />
  <circle cx="68" cy="25" r="11" fill="none" stroke="#FFFFFF" stroke-width="2.5" />
  
  <path d="M68 25 C68 25, 59 13, 68 3 C77 13, 68 25, 68 25 Z" fill="#FF3B30" />
  <circle cx="68" cy="11" r="3" fill="#FFFFFF" />
</svg>
